<?xml version="1.0" standalone="no"?>
<!DOCTYPE svg PUBLIC "-//W3C//DTD SVG 20010904//EN"
 "http://www.w3.org/TR/2001/REC-SVG-20010904/DTD/svg10.dtd">
<svg version="1.0" xmlns="http://www.w3.org/2000/svg"
 width="512.000000pt" height="512.000000pt" viewBox="0 0 512.000000 512.000000"
 preserveAspectRatio="xMidYMid meet">
<metadata>
Created by potrace 1.16, written by Peter Selinger 2001-2019
</metadata>
<g transform="translate(0.000000,512.000000) scale(0.100000,-0.100000)"
fill="#000000" stroke="none">
<path d="M3070 3583 c-37 -26 -48 -44 -56 -90 -3 -24 -11 -43 -18 -43 -6 0
-73 11 -150 25 -76 14 -142 22 -147 19 -5 -3 -27 14 -49 37 -39 41 -40 41
-100 37 -67 -5 -102 -25 -135 -76 -23 -36 -31 -38 -56 -16 -16 15 -32 14 -190
-7 -135 -18 -176 -27 -189 -42 -14 -14 -54 -23 -182 -40 -188 -25 -222 -40
-279 -123 -42 -61 -63 -118 -94 -256 -40 -177 -37 -196 33 -219 20 -6 40 -13
43 -15 4 -2 -34 -93 -83 -201 -125 -280 -112 -258 -116 -193 -4 62 -14 80 -49
80 -24 0 -24 0 -21 -102 3 -96 5 -104 25 -113 17 -7 21 -15 17 -30 -6 -23 -20
-34 -87 -75 -79 -49 -87 -71 -87 -239 0 -122 -3 -147 -17 -163 -11 -13 -17
-37 -17 -74 -1 -75 21 -94 109 -94 l64 0 15 -54 c9 -30 29 -67 44 -84 l28 -30
-51 -6 c-27 -3 -79 -6 -115 -7 l-65 -1 60 -11 c78 -14 2419 -16 2590 -2 l120
9 -70 7 c-38 4 -133 7 -209 8 l-139 1 21 23 c28 30 62 105 62 140 0 31 15 36
23 7 7 -28 25 -25 33 5 7 27 17 30 139 40 171 14 175 15 222 59 l43 41 0 417
0 418 44 0 c25 0 48 4 51 10 9 15 -12 50 -62 101 -44 46 -44 46 -41 110 l3 64
80 8 c98 10 115 22 115 88 0 64 -15 73 -153 93 -59 9 -109 16 -112 16 -2 0 -7
31 -11 69 -7 80 -35 137 -79 162 -22 13 -341 89 -372 89 -2 0 -3 19 -3 43 0
53 -31 120 -64 142 -31 21 -184 55 -246 55 -27 0 -56 -7 -70 -17z m193 -34
c45 -11 92 -27 104 -34 19 -13 50 -81 41 -90 -2 -3 -50 5 -106 17 -91 19 -102
24 -102 43 0 12 -6 29 -13 39 -12 16 -13 14 -9 -18 l4 -37 -63 3 c-56 3 -64 6
-67 24 -4 31 50 74 95 74 19 0 71 -9 116 -21z m-639 -38 c19 -20 19 -20 -5
-25 -56 -11 -179 -21 -179 -15 0 13 33 41 65 55 38 18 93 11 119 -15z m474
-125 c379 -71 677 -133 703 -147 36 -19 59 -70 59 -131 0 -32 -4 -58 -10 -58
-5 0 -10 18 -10 39 0 22 -4 42 -9 45 -7 5 -193 39 -604 112 -76 13 -143 22
-148 19 -5 -4 -9 -37 -9 -76 l0 -69 -42 0 c-41 0 -78 -13 -68 -24 8 -7 229
-26 243 -20 22 8 907 -99 929 -112 11 -7 10 -61 -1 -68 -5 -3 -92 5 -193 19
-486 66 -678 84 -788 75 -161 -14 -201 -21 -197 -33 8 -26 90 -39 202 -31 61
4 126 7 145 7 37 0 592 -80 623 -89 13 -4 17 -17 17 -61 l0 -55 -39 31 c-22
17 -57 38 -79 45 -102 36 -965 127 -923 98 8 -6 41 -14 73 -17 l58 -7 0 -336
c-1 -327 0 -336 20 -356 20 -20 37 -21 383 -32 351 -10 363 -10 400 9 42 22
44 40 4 45 l-27 3 0 176 0 176 46 -7 c26 -3 55 -6 65 -6 18 0 19 -12 19 -223
l0 -222 -77 2 c-410 13 -886 23 -894 18 -27 -17 24 -23 283 -29 156 -3 374 -9
486 -13 l202 -6 0 -137 c0 -155 2 -150 -77 -150 -71 0 -50 -24 25 -28 48 -2
60 -6 55 -17 -3 -11 -21 -15 -58 -15 -61 0 -84 -17 -30 -22 19 -2 36 -7 38
-13 1 -6 -52 -15 -128 -22 -211 -19 -195 -22 -229 43 -37 71 -82 106 -144 111
-38 4 -54 0 -82 -19 -40 -27 -84 -88 -101 -138 -16 -48 -27 -60 -55 -60 -21 0
-24 5 -24 35 l0 35 -150 0 -150 0 0 -44 c0 -37 -3 -45 -22 -49 -20 -5 -281
-11 -315 -8 -10 1 -13 138 -13 647 l0 647 38 -6 c35 -6 170 -19 312 -32 112
-9 53 14 -65 26 -61 7 -115 17 -121 23 -39 38 -57 269 -29 363 16 55 79 123
114 123 17 0 711 -124 950 -170 57 -11 106 -18 108 -16 7 6 -18 13 -157 40
-99 20 -727 136 -876 163 -47 8 -102 -23 -135 -76 -34 -53 -46 -89 -61 -193
-7 -43 -15 -78 -19 -78 -13 0 -19 136 -9 189 14 74 58 149 111 190 55 42 55
42 457 -33z m91 48 c3 -2 0 -8 -5 -14 -9 -9 -120 12 -132 26 -8 7 129 -4 137
-12z m-622 -35 c-46 -54 -72 -126 -102 -288 -28 -152 -44 -181 -103 -181 -30
0 -292 -25 -777 -74 -72 -7 -134 -10 -139 -5 -14 13 28 215 64 312 25 66 91
142 130 150 14 3 214 29 445 57 361 45 499 63 513 69 2 0 -12 -17 -31 -40z
m756 15 c70 -16 96 -28 85 -39 -10 -10 -202 31 -206 43 -5 17 35 15 121 -4z
m-875 -1191 l2 -643 -211 0 c-116 0 -218 4 -228 10 -10 5 -21 24 -25 41 -17
88 -93 158 -157 145 -43 -8 -37 15 13 59 l43 36 -23 39 c-29 51 -28 61 13 154
19 44 32 82 30 84 -3 3 -19 -26 -36 -64 -43 -96 -115 -242 -142 -286 -18 -32
-28 -38 -54 -38 -31 0 -33 2 -33 34 0 34 1 35 42 38 35 3 43 7 51 31 5 15 6
39 3 52 -6 22 -12 25 -51 25 -52 0 -62 17 -45 78 11 44 21 54 65 71 23 9 -13
10 -165 6 -273 -8 -340 -14 -340 -33 0 -13 15 -14 98 -9 53 4 152 10 220 13
l122 7 -15 -36 c-8 -20 -15 -46 -15 -57 0 -16 -6 -20 -34 -20 -19 0 -41 -3
-49 -6 -12 -4 -16 3 -19 28 l-3 33 -112 -4 c-97 -3 -114 -1 -119 13 -15 40
-24 7 -24 -94 0 -84 -3 -110 -13 -110 -9 0 -13 15 -13 48 l1 47 -42 3 -43 3 0
54 c0 30 5 66 12 80 6 14 49 50 96 81 l84 55 281 15 c155 8 291 19 303 23 27
12 180 359 165 374 -7 7 -102 3 -298 -12 -158 -12 -296 -21 -305 -21 -14 0
-10 15 24 88 22 48 43 90 46 94 8 7 649 68 720 68 104 0 139 -57 151 -242 l8
-123 2 125 c1 112 -1 131 -21 170 -13 25 -37 54 -55 65 -18 11 -31 24 -29 30
4 13 45 24 86 22 l35 -2 3 -642z m672 613 c25 -7 74 -17 110 -20 113 -12 137
-27 187 -111 28 -46 18 -55 -56 -55 -95 0 -131 8 -131 31 0 19 -37 60 -114
127 -27 23 -47 42 -45 42 2 0 24 -6 49 -14z m432 -67 c27 -14 67 -72 74 -107
6 -31 5 -32 -27 -32 -19 0 -50 3 -70 6 -31 5 -38 11 -43 36 -3 16 -19 49 -36
73 l-30 44 58 -6 c31 -3 65 -10 74 -14z m213 -32 c47 -32 86 -70 101 -100 l15
-28 -83 7 c-103 7 -108 9 -108 33 0 10 -16 42 -35 71 l-35 51 58 -7 c31 -3 71
-16 87 -27z m157 -34 c38 -38 74 -76 79 -85 9 -16 5 -18 -29 -18 -36 0 -40 3
-46 32 -4 21 -26 51 -61 85 -44 43 -51 53 -34 53 12 0 50 -28 91 -67z m-449
-119 c55 -5 67 -9 63 -21 -3 -8 -6 -42 -6 -76 0 -60 -1 -62 -33 -77 -29 -14
-39 -29 -52 -86 -2 -6 -18 -8 -39 -6 -32 4 -36 7 -34 31 3 22 -1 27 -24 29
l-28 3 0 110 0 110 43 -5 c23 -3 73 -8 110 -12z m-1423 -10 c0 -8 -80 -195
-106 -246 l-24 -48 -78 1 c-77 1 -80 2 -30 13 20 5 41 30 91 108 35 57 70 114
77 127 l12 24 -73 -5 -73 -6 -111 -117 -110 -117 -109 -6 c-100 -5 -109 -4
-103 12 37 97 84 190 102 204 18 15 65 22 232 36 114 10 215 19 223 21 27 5
80 5 80 -1z m1698 -10 c22 -4 22 -7 22 -140 l0 -137 -42 7 c-23 4 -43 8 -43 9
-1 1 -8 20 -16 42 -11 32 -24 45 -62 64 l-47 23 0 73 0 73 83 -5 c45 -2 92 -6
105 -9z m-2347 -131 c-11 -21 -20 -35 -21 -31 0 12 33 78 38 74 2 -2 -6 -21
-17 -43z m1759 -83 c0 -5 -18 -10 -40 -10 -22 0 -40 5 -40 10 0 6 18 10 40 10
22 0 40 -4 40 -10z m128 0 c17 0 32 -4 32 -10 0 -6 -27 -10 -60 -10 -33 0 -60
4 -60 8 0 16 14 23 35 18 11 -3 35 -6 53 -6z m-1937 -27 c-12 -20 -14 -14 -5
12 4 9 9 14 11 11 3 -2 0 -13 -6 -23z m2279 -2 c0 -17 -7 -18 -72 -13 -80 5
-83 6 -73 21 3 6 37 11 76 11 61 0 69 -2 69 -19z m-1870 -39 c0 -10 -390 -32
-405 -23 -5 3 62 11 150 17 214 15 255 16 255 6z m1745 -33 c238 -10 291 -16
272 -35 -7 -7 -687 15 -699 23 -5 2 -8 11 -8 18 0 12 16 14 88 10 48 -3 204
-10 347 -16z m-2025 -279 c0 -17 -7 -20 -47 -20 -27 0 -72 -3 -100 -6 -52 -7
-53 -6 -53 20 l0 26 100 0 c93 0 100 -1 100 -20z m8 -67 c3 -23 2 -23 -102
-23 -98 0 -106 1 -106 19 0 22 40 29 150 27 49 -1 55 -3 58 -23z m112 8 c0
-26 -15 -34 -46 -27 -15 4 -24 14 -24 26 0 16 7 20 35 20 28 0 35 -4 35 -19z
m108 -23 c-2 -15 -11 -24 -25 -26 -19 -3 -23 1 -23 22 0 21 5 26 26 26 21 0
25 -4 22 -22z m-508 -24 c0 -22 -4 -25 -27 -22 -20 2 -29 9 -31 26 -3 19 1 22
27 22 27 0 31 -4 31 -26z m366 -4 c55 0 61 -25 8 -33 -48 -8 -64 0 -63 32 0
14 3 20 6 14 3 -8 23 -13 49 -13z m-86 -20 c0 -19 -7 -20 -100 -20 -93 0 -100
1 -100 20 0 19 7 20 100 20 93 0 100 -1 100 -20z m-232 -57 c-2 -14 -15 -19
-61 -21 -52 -3 -57 -1 -57 18 0 18 6 20 61 20 52 0 60 -2 57 -17z m362 -3 c0
-19 -7 -20 -164 -20 -134 0 -165 3 -169 15 -7 15 30 19 231 23 96 2 102 1 102
-18z m1809 -65 c76 -39 73 -202 -4 -237 -60 -27 -115 29 -115 117 0 69 35 123
88 134 2 1 16 -6 31 -14z m-1558 -20 c89 -47 47 -234 -47 -211 -22 6 -54 51
-54 76 0 18 15 11 25 -12 15 -34 59 -46 85 -23 24 22 35 72 21 105 -9 23 -10
21 -10 -18 -1 -24 -6 -52 -11 -63 -12 -22 -52 -25 -68 -6 -15 18 -2 33 36 42
17 3 32 12 32 19 0 11 -77 13 -377 12 l-378 -1 -3 48 -3 47 361 0 c306 0 366
-2 391 -15z m1217 -72 c3 -10 -13 -13 -57 -13 -62 0 -84 15 -33 23 45 7 85 3
90 -10z m70 -107 c6 -25 26 -61 43 -80 l31 -36 -162 0 -162 0 30 30 c16 16 38
49 48 74 20 48 26 51 119 54 40 2 41 1 53 -42z m-1460 -88 l26 -28 -77 0 -77
0 35 46 c19 25 35 53 36 62 0 9 7 1 16 -18 8 -19 26 -47 41 -62z m917 52 c4
-11 18 -34 32 -50 l25 -30 -381 0 -380 0 37 50 37 50 312 0 c303 0 312 -1 318
-20z"/>
<path d="M2635 2960 c11 -40 32 -67 56 -73 21 -6 21 -5 -3 21 -14 15 -33 38
-42 52 l-18 25 7 -25z"/>
<path d="M2522 2818 c-18 -18 -17 -484 1 -495 6 -4 72 -10 146 -13 103 -4 135
-8 139 -19 4 -12 -19 -13 -148 -7 -121 5 -151 4 -148 -6 7 -19 298 -24 310 -6
4 7 8 129 8 270 l0 258 -22 5 c-34 8 -198 25 -238 25 -20 0 -41 -5 -48 -12z
m235 -180 c10 -8 12 -46 11 -142 l-2 -131 -3 132 c-4 154 13 136 -148 152
l-100 10 115 -5 c63 -3 120 -10 127 -16z m-25 -35 c5 -2 8 -55 8 -118 l0 -114
-87 5 c-49 3 -94 7 -100 10 -10 2 -13 35 -13 120 l0 117 92 -8 c51 -4 96 -9
100 -12z"/>
<path d="M2506 2145 c-2 -7 -2 -16 1 -19 11 -11 301 -7 308 4 10 15 -9 18
-162 23 -111 4 -143 2 -147 -8z"/>
<path d="M2510 2068 c0 -16 13 -18 144 -18 92 0 147 4 151 11 4 6 5 12 4 14
-2 1 -70 5 -151 7 -136 3 -148 2 -148 -14z"/>
<path d="M2960 2032 c0 -6 12 -13 28 -16 50 -9 676 -17 727 -8 43 7 28 9 -100
15 -339 15 -655 20 -655 9z"/>
<path d="M2510 2015 c0 -17 72 -20 217 -8 129 10 87 23 -73 23 -121 0 -144 -2
-144 -15z"/>
<path d="M2653 1972 c-81 -1 -143 -7 -143 -12 0 -8 288 -3 298 5 10 8 -27 10
-155 7z"/>
<path d="M3220 1959 c166 -11 597 -18 575 -10 -11 5 -168 10 -350 13 -181 2
-283 1 -225 -3z"/>
<path d="M1596 3159 c-33 -29 -58 -65 -85 -123 -68 -142 -65 -174 3 -38 24 48
65 114 91 145 25 31 44 57 42 57 -2 0 -25 -18 -51 -41z"/>
<path d="M2405 3113 c-4 -26 -13 -62 -20 -79 -16 -38 9 -34 -435 -74 -184 -17
-339 -32 -345 -35 -24 -9 85 -4 300 15 385 33 469 42 483 55 13 12 38 152 29
161 -3 3 -8 -17 -12 -43z"/>
<path d="M1558 2913 c6 -2 18 -2 25 0 6 3 1 5 -13 5 -14 0 -19 -2 -12 -5z"/>
<path d="M2113 2623 c10 -10 181 -22 190 -13 4 4 -23 10 -60 13 -88 9 -138 9
-130 0z"/>
<path d="M2087 2519 c-14 -24 -42 -89 -63 -144 -36 -96 -37 -104 -35 -210 1
-60 6 -135 10 -165 7 -43 9 -22 10 100 1 149 3 159 36 253 19 54 45 117 58
140 l23 42 84 -3 c53 -2 87 -7 92 -15 4 -7 8 -94 8 -194 l0 -183 -40 0 c-29 0
-40 -4 -40 -15 0 -11 11 -15 40 -15 l40 0 -2 -237 -3 -238 -119 -3 c-72 -2
-123 1 -131 8 -7 6 -15 24 -19 40 -9 45 -28 38 -20 -7 13 -75 10 -73 159 -73
130 0 135 1 150 24 14 20 15 79 12 465 -3 324 -7 445 -15 453 -7 7 -53 14
-111 16 l-99 4 -25 -43z"/>
<path d="M2127 2503 c-20 -21 -87 -219 -87 -259 0 -86 117 -144 128 -64 3 20
8 22 52 18 28 -3 54 0 60 6 12 12 14 292 2 300 -5 3 -38 8 -73 11 -54 6 -67 4
-82 -12z"/>
<path d="M3404 1665 c31 -28 35 -78 10 -114 -13 -18 -23 -22 -46 -17 -21 4
-28 2 -26 -7 3 -6 19 -13 36 -15 24 -3 34 2 48 23 36 55 14 155 -34 155 -10 0
-6 -8 12 -25z"/>
<path d="M3316 1614 c-7 -18 0 -34 15 -34 5 0 9 11 9 25 0 28 -15 34 -24 9z"/>
<path d="M3375 1619 c-9 -13 3 -59 14 -59 5 0 14 13 19 29 8 24 7 31 -5 35
-20 8 -21 8 -28 -5z"/>
</g>
</svg>