<svg width="32" height="32" viewBox="0 0 32 32" fill="none" xmlns="http://www.w3.org/2000/svg">
  <defs>
    <!-- Pin background gradient -->
    <linearGradient id="pinGradient" x1="0%" y1="0%" x2="0%" y2="100%">
      <stop offset="0%" style="stop-color:#ffffff;stop-opacity:1" />
      <stop offset="100%" style="stop-color:#f3f4f6;stop-opacity:1" />
    </linearGradient>
    <!-- Food truck gradient -->
    <linearGradient id="foodTruckGradient" x1="0%" y1="0%" x2="0%" y2="100%">
      <stop offset="0%" style="stop-color:var(--truck-color-light, #f59e0b);stop-opacity:1" />
      <stop offset="100%" style="stop-color:var(--truck-color-dark, #d97706);stop-opacity:1" />
    </linearGradient>
    <!-- Accent color for details -->
    <linearGradient id="accentGradient" x1="0%" y1="0%" x2="0%" y2="100%">
      <stop offset="0%" style="stop-color:#ef4444;stop-opacity:1" />
      <stop offset="100%" style="stop-color:#dc2626;stop-opacity:1" />
    </linearGradient>
    <!-- Drop shadow -->
    <filter id="shadow" x="-50%" y="-50%" width="200%" height="200%">
      <feDropShadow dx="0" dy="2" stdDeviation="2" flood-color="#000000" flood-opacity="0.2"/>
    </filter>
  </defs>
  
  <!-- Pin shape background -->
  <path d="M16 3C12.1 3 9 6.1 9 10c0 5.25 7 17 7 17s7-11.75 7-17c0-3.9-3.1-7-7-7z" 
        fill="url(#pinGradient)" stroke="#e5e7eb" stroke-width="1" filter="url(#shadow)"/>
  
  <!-- Food Truck Icon -->
  <g transform="translate(16, 10) scale(1.1)">
    <!-- Main food truck body -->
    <rect x="-5.5" y="-2.5" width="9" height="4" rx="0.5" fill="url(#foodTruckGradient)" stroke="#d97706" stroke-width="0.3"/>
    
    <!-- Cab/driver section -->
    <rect x="-6.5" y="-1.5" width="2" height="3" rx="0.3" fill="url(#foodTruckGradient)" stroke="#d97706" stroke-width="0.3"/>
    
    <!-- Service window (the key identifier) -->
    <rect x="-2" y="-2" width="5" height="2" rx="0.3" fill="#ffffff" stroke="#d97706" stroke-width="0.2"/>
    
    <!-- Serving counter/awning -->
    <rect x="-2" y="0" width="5" height="0.8" rx="0.2" fill="url(#accentGradient)" stroke="#dc2626" stroke-width="0.2"/>
    
    <!-- Front wheel -->
    <circle cx="-4.5" cy="2.2" r="0.8" fill="#374151" stroke="#1f2937" stroke-width="0.2"/>
    <circle cx="-4.5" cy="2.2" r="0.4" fill="#6b7280"/>
    
    <!-- Rear wheel -->
    <circle cx="1.5" cy="2.2" r="0.8" fill="#374151" stroke="#1f2937" stroke-width="0.2"/>
    <circle cx="1.5" cy="2.2" r="0.4" fill="#6b7280"/>
    
    <!-- Windshield -->
    <rect x="-5.8" y="-1" width="1.5" height="1.5" rx="0.2" fill="#bfdbfe" stroke="#93c5fd" stroke-width="0.1"/>
    
    <!-- Food/chef hat detail -->
    <circle cx="0.5" cy="-1" r="0.6" fill="#ffffff" stroke="#f3f4f6" stroke-width="0.1"/>
    <path d="M 0.2,-1.3 Q 0.5,-1.5 0.8,-1.3" stroke="#d1d5db" stroke-width="0.2" fill="none"/>
  </g>
</svg>
